<svg version="1.2" xmlns="http://www.w3.org/2000/svg" viewBox="0 0 1012 393" width="1012" height="393">
	<title>New Project</title>
	<style>
		.s0 { fill: #808080 } 
		.s1 { fill: #00ffff } 
	</style>
	<path id="Shape 1" class="s0" d="m12 10c0 0 5.6 0 16 0 5.2 0 11.5 0 19 0 7.5-0.1 16-0.1 25.5-0.1 9.5 0 19.9-0.1 31.2-0.1 11.2-0.1 23.3-0.2 36.2-0.2q9.5-0.1 19.6-0.2 10.1 0 20.7-0.1 10.5-0.1 21.4-0.2 11 0 22.3-0.1 11.2-0.1 22.8-0.2 11.6-0.1 23.4-0.2 11.8-0.1 23.9-0.2 12 0 24.2-0.1 12.1-0.1 24.4-0.1 12.3-0.1 24.7-0.2 12.3 0 24.7 0 12.3 0 24.7 0 12.3 0 24.6 0 12.2 0 24.5 0.1 12.1 0.1 24.2 0.2 11.9 0.2 23.8 0.3 11.8 0.2 23.5 0.5 11.6 0.2 23.1 0.5 11.3 0.3 22.5 0.7 11.1 0.3 22 0.8 10.8 0.4 21.4 0.9 10.4 0.6 20.6 1.2 10.2 0.6 20 1.3 9.8 0.7 19.3 1.4 9.4 0.8 18.4 1.7 9 0.9 17.7 1.8 8.6 1 16.9 2 8.1 1.1 16 2.2 7.8 1.1 15.2 2.3 7.3 1.2 14.3 2.5 6.9 1.3 13.5 2.7 6.5 1.3 12.6 2.7 6.1 1.5 11.8 2.9 5.6 1.5 10.9 3.1 5.3 1.5 10.2 3.1 4.8 1.5 9.3 3.1 4.5 1.6 8.6 3.2 4.1 1.6 7.8 3.2 3.7 1.7 7.1 3.2 3.4 1.6 6.5 3.2 6 3.2 10.9 6 4.7 3 8.5 5.5 3.6 2.6 6.3 4.7 2.7 2.1 4.4 3.6c2.3 2 3.5 3 3.5 3 0 0 5 1.8 13.3 5 4 1.6 8.8 3.7 14 6.1 5.1 2.5 10.5 5.5 16.1 8.8 5.3 3.5 10.6 7.4 15.9 11.6 4.8 4.5 9.4 9.3 13.6 14.6 3.6 5.4 6.8 11.2 9.5 17.3 2 6.3 3.4 12.9 4.2 19.8 0 7-0.6 14.3-1.8 21.7-1.9 7.6-4.5 15.3-7.5 22.9-3.8 7.8-8 15.6-12.5 23.1-5.1 7.7-10.3 15.1-15.7 22-5.7 7.1-11.4 13.7-16.7 19.6-5.6 6-10.7 11.4-15.1 15.8-9.1 8.9-14.7 14.1-14.7 14.1 0 0-2.2 1-6.4 2.8q-3.2 1.4-7.8 3.4-4.6 1.9-10.6 4.3-6 2.3-13.4 5.1-7.3 2.7-15.9 5.7-4.3 1.5-9 3-4.6 1.5-9.5 3-5 1.6-10.2 3.1-5.3 1.6-10.8 3.1-5.6 1.6-11.4 3.1-5.9 1.5-12.1 3.1-6.2 1.5-12.6 3-6.5 1.4-13.2 2.9-6.8 1.4-13.8 2.8-7.1 1.4-14.5 2.7-7.3 1.4-15 2.7-7.6 1.2-15.6 2.4-7.9 1.2-16.1 2.4-8.3 1.1-16.8 2.2-8.5 1-17.3 2.1-8.8 0.9-17.8 1.9-9.2 0.9-18.5 1.7-9.3 0.9-18.9 1.6-9.6 0.8-19.5 1.5-9.8 0.7-19.9 1.3-10.1 0.6-20.4 1.2-10.4 0.5-20.9 1-10.6 0.5-21.2 0.9-10.8 0.5-21.7 0.8-11 0.4-22 0.7-11.1 0.3-22.3 0.6-11.2 0.3-22.5 0.5-11.3 0.2-22.7 0.4-11.4 0.2-22.8 0.3-11.5 0.1-22.9 0.3-11.5 0.1-22.9 0.2-11.5 0-22.9 0.1-11.4 0.1-22.7 0.1-11.3 0.1-22.4 0.1-11.2 0-22.1 0-11 0-21.7 0-10.8 0-21.2 0-10.5 0-20.6 0-10.1 0-19.8 0-9.8 0-19.1 0c-12.4 0-24.2 0-35.1 0-11.1 0-21.4-0.1-30.7-0.1-9.3 0-17.8 0-25.2 0-7.4 0-13.7 0-18.9 0-10.3 0-15.9 0-15.9 0 0 0 0-5.8 0-16 0-5.1 0-11.2 0-18.3 0-7.1 0-15.1 0-23.8 0-8.7 0-18.2 0-28.2 0-10 0-20.5 0-31.4 0-10.9 0-22.2 0-33.6 0-11.5 0-23.1 0-34.7 0-11.6 0-23.2 0-34.7 0-11.4 0-22.7 0-33.6 0-10.9 0-21.4 0-31.4 0-10 0-19.5 0-28.2 0-8.7 0-16.7 0-23.8 0-7.1 0-13.2 0-18.3 0-10.2 0-16 0-16z"/>
	<g id="Folder 1">
		<path id="Shape 2" class="s1" d="m101 41h195v109h-195z"/>
		<path id="Shape 3" class="s1" d="m103 203h196v113h-196z"/>
		<path id="Shape 4" class="s1" d="m358 48h189v96h-189z"/>
		<path id="Shape 5" class="s1" d="m368 222h189v108h-189z"/>
		<path id="Shape 6" class="s1" d="m624 203h186v117h-186z"/>
	</g>
</svg>