<svg width="20" height="22" viewBox="0 0 20 22" fill="none" xmlns="http://www.w3.org/2000/svg">
<path d="M13.8438 0.171875L13.375 1.57812H18.2031L17.7344 0.171875H13.8438ZM1.86719 0.5V3.07812H0.789062V3.92188H6.78906V3.07812H5.71094V0.5H4.86719V3.07812H2.71094V0.5H1.86719ZM11.7109 2.42188V16.5781H19.8672V2.42188H11.7109ZM1.96094 4.67188V7.07656L3.21391 8.32812H4.36563L5.61719 7.07656V4.67188H1.96094ZM12.3672 7.57812H19.2109V9.92188H12.3672V7.57812ZM3.36719 9.17188V17C3.36719 18.4719 4.23906 19.6109 5.45312 20.3187C6.6625 21.0266 8.22813 21.3594 9.78906 21.3594C11.35 21.3594 12.9156 21.0266 14.125 20.3187C15.2219 19.6812 16.0375 18.6922 16.1875 17.4219H15.3391C15.2031 18.3594 14.6078 19.0578 13.7031 19.5875C12.6625 20.1922 11.2281 20.5156 9.78906 20.5156C8.35 20.5156 6.91563 20.1922 5.875 19.5875C4.83906 18.9828 4.21094 18.1531 4.21094 17V9.17188H3.36719ZM12.3672 10.5781H19.2109V12.9219H12.3672V10.5781ZM12.3672 13.5781H19.2109V15.9219H12.3672V13.5781Z" fill="#61B2E4"/>
</svg>
