<svg width="24" height="24" viewBox="0 0 24 24" fill="none" xmlns="http://www.w3.org/2000/svg">
<g clip-path="url(#clip0_172_176)">
<path d="M2.57146 4.28572C2.11681 4.28572 1.68077 4.46633 1.35928 4.78782C1.03779 5.10931 0.857178 5.54535 0.857178 6V21.4286C0.857178 21.8832 1.03779 22.3193 1.35928 22.6408C1.68077 22.9622 2.11681 23.1429 2.57146 23.1429H21.4286C21.8833 23.1429 22.3193 22.9622 22.6408 22.6408C22.9623 22.3193 23.1429 21.8832 23.1429 21.4286V6C23.1429 5.54535 22.9623 5.10931 22.6408 4.78782C22.3193 4.46633 21.8833 4.28572 21.4286 4.28572H18M6.00003 0.857147V7.71429M18 0.857147V7.71429M6.00003 4.28572H14.5715" stroke="#40B7D3" stroke-width="1.71429" stroke-linecap="round" stroke-linejoin="round"/>
<path d="M6.85718 15.4286L10.2857 18L16.2857 11.1429" stroke="#40B7D3" stroke-width="1.71429" stroke-linecap="round" stroke-linejoin="round"/>
</g>
<defs>
<clipPath id="clip0_172_176">
<rect width="24" height="24" fill="white"/>
</clipPath>
</defs>
</svg>
