
<svg width="14" height="14" viewBox="0 0 14 14" fill="none" xmlns="http://www.w3.org/2000/svg">
<path d="M12.4268 11.0253C13.2435 10.3837 13.6518 9.27533 13.4768 8.22533L12.8352 4.95866L12.6018 3.55866C12.3685 2.15866 11.1435 1.16699 9.74349 1.16699H6.59349C5.19349 1.16699 3.96849 2.15866 3.73516 3.55866L2.86016 8.22533C2.68516 9.27533 3.03516 10.3837 3.91016 11.0253L3.09349 11.842C2.86016 12.0753 2.86016 12.4253 3.09349 12.6587C3.32682 12.892 3.67682 12.892 3.91016 12.6587L5.01849 11.5503C5.25182 11.6087 5.48516 11.667 5.71849 11.667H10.6185C10.8518 11.667 11.0852 11.6087 11.3185 11.5503L12.4268 12.6587C12.6602 12.892 13.0102 12.892 13.2435 12.6587C13.4768 12.4253 13.4768 12.0753 13.2435 11.842L12.4268 11.0253ZM5.83516 9.33366C5.48516 9.33366 5.25182 9.10033 5.25182 8.75033C5.25182 8.40033 5.48516 8.16699 5.83516 8.16699C6.18516 8.16699 6.41849 8.40033 6.41849 8.75033C6.41849 9.10033 6.18516 9.33366 5.83516 9.33366ZM10.5018 9.33366C10.1518 9.33366 9.91849 9.10033 9.91849 8.75033C9.91849 8.40033 10.1518 8.16699 10.5018 8.16699C10.8518 8.16699 11.0852 8.40033 11.0852 8.75033C11.0852 9.10033 10.8518 9.33366 10.5018 9.33366ZM8.16849 6.41699C6.82682 6.41699 5.54349 5.83366 4.66849 4.84199L4.84349 3.79199C5.01849 2.91699 5.77682 2.33366 6.59349 2.33366H9.74349C10.5602 2.33366 11.3185 2.91699 11.4352 3.73366L11.6685 4.84199C10.7935 5.83366 9.51016 6.41699 8.16849 6.41699Z" fill="#40B7D3"/>
</svg>
